<mxfile host="app.diagrams.net" agent="Mozilla/5.0 (Windows NT 10.0; Win64; x64) AppleWebKit/537.36 (KHTML, like Gecko) Chrome/130.0.0.0 Safari/537.36" version="24.8.4">
  <diagram name="Page-1" id="p1iJ-0BjArqVABgZE2Ga">
    <mxGraphModel grid="1" page="1" gridSize="10" guides="1" tooltips="1" connect="1" arrows="1" fold="1" pageScale="1" pageWidth="850" pageHeight="1100" math="0" shadow="0">
      <root>
        <mxCell id="0" />
        <mxCell id="1" parent="0" />
        <mxCell id="3i-_RwcoVbfSzUQDlx0F-38" value="" style="ellipse;whiteSpace=wrap;html=1;" vertex="1" parent="1">
          <mxGeometry x="397.87" y="755" width="10" height="10" as="geometry" />
        </mxCell>
        <mxCell id="3i-_RwcoVbfSzUQDlx0F-1" value="&lt;font style=&quot;font-size: 14px;&quot;&gt;Validate Member&lt;/font&gt;" style="rounded=1;whiteSpace=wrap;html=1;" vertex="1" parent="1">
          <mxGeometry x="316.25" y="240" width="170" height="40" as="geometry" />
        </mxCell>
        <mxCell id="3i-_RwcoVbfSzUQDlx0F-2" value="&lt;font style=&quot;font-size: 14px;&quot;&gt;Enquiring about books&lt;/font&gt;" style="rounded=1;whiteSpace=wrap;html=1;" vertex="1" parent="1">
          <mxGeometry x="320" y="50" width="160" height="40" as="geometry" />
        </mxCell>
        <mxCell id="3i-_RwcoVbfSzUQDlx0F-3" value="&lt;font style=&quot;font-size: 14px;&quot;&gt;Book no available&lt;/font&gt;" style="rounded=1;whiteSpace=wrap;html=1;" vertex="1" parent="1">
          <mxGeometry x="520" y="185" width="150" height="40" as="geometry" />
        </mxCell>
        <mxCell id="3i-_RwcoVbfSzUQDlx0F-4" value="&lt;font style=&quot;font-size: 14px;&quot;&gt;Check availability of book&lt;/font&gt;" style="rounded=1;whiteSpace=wrap;html=1;" vertex="1" parent="1">
          <mxGeometry x="315" y="120" width="165" height="40" as="geometry" />
        </mxCell>
        <mxCell id="3i-_RwcoVbfSzUQDlx0F-5" value="&lt;font style=&quot;font-size: 14px;&quot;&gt;Check number of boks issued to member&lt;/font&gt;" style="rounded=1;whiteSpace=wrap;html=1;" vertex="1" parent="1">
          <mxGeometry x="315" y="360" width="172.5" height="40" as="geometry" />
        </mxCell>
        <mxCell id="3i-_RwcoVbfSzUQDlx0F-6" value="" style="rhombus;whiteSpace=wrap;html=1;" vertex="1" parent="1">
          <mxGeometry x="378.63" y="190" width="43.75" height="30" as="geometry" />
        </mxCell>
        <mxCell id="3i-_RwcoVbfSzUQDlx0F-7" value="" style="rhombus;whiteSpace=wrap;html=1;" vertex="1" parent="1">
          <mxGeometry x="381" y="300" width="43.75" height="30" as="geometry" />
        </mxCell>
        <mxCell id="3i-_RwcoVbfSzUQDlx0F-8" value="&lt;font style=&quot;font-size: 14px;&quot;&gt;Register Member&lt;/font&gt;" style="rounded=1;whiteSpace=wrap;html=1;" vertex="1" parent="1">
          <mxGeometry x="520" y="295" width="150" height="40" as="geometry" />
        </mxCell>
        <mxCell id="3i-_RwcoVbfSzUQDlx0F-9" value="&lt;font style=&quot;font-size: 14px;&quot;&gt;Book not issued&lt;/font&gt;" style="rounded=1;whiteSpace=wrap;html=1;" vertex="1" parent="1">
          <mxGeometry x="140" y="430" width="170" height="40" as="geometry" />
        </mxCell>
        <mxCell id="3i-_RwcoVbfSzUQDlx0F-10" value="" style="rhombus;whiteSpace=wrap;html=1;" vertex="1" parent="1">
          <mxGeometry x="379.37" y="430" width="43.75" height="40" as="geometry" />
        </mxCell>
        <mxCell id="3i-_RwcoVbfSzUQDlx0F-12" value="&lt;font style=&quot;font-size: 14px;&quot;&gt;Issue Book&lt;/font&gt;" style="rounded=1;whiteSpace=wrap;html=1;" vertex="1" parent="1">
          <mxGeometry x="315" y="510" width="170" height="40" as="geometry" />
        </mxCell>
        <mxCell id="3i-_RwcoVbfSzUQDlx0F-13" value="&lt;font style=&quot;font-size: 14px;&quot;&gt;Add members, book and issue details&lt;/font&gt;" style="rounded=1;whiteSpace=wrap;html=1;" vertex="1" parent="1">
          <mxGeometry x="315" y="590" width="170" height="40" as="geometry" />
        </mxCell>
        <mxCell id="3i-_RwcoVbfSzUQDlx0F-14" value="&lt;font style=&quot;font-size: 14px;&quot;&gt;Update book status&lt;/font&gt;" style="rounded=1;whiteSpace=wrap;html=1;" vertex="1" parent="1">
          <mxGeometry x="315" y="670" width="170" height="40" as="geometry" />
        </mxCell>
        <mxCell id="3i-_RwcoVbfSzUQDlx0F-15" value="" style="endArrow=classic;html=1;rounded=0;entryX=0.5;entryY=0;entryDx=0;entryDy=0;entryPerimeter=0;exitX=0.5;exitY=1;exitDx=0;exitDy=0;" edge="1" parent="1" source="3i-_RwcoVbfSzUQDlx0F-13" target="3i-_RwcoVbfSzUQDlx0F-14">
          <mxGeometry width="50" height="50" relative="1" as="geometry">
            <mxPoint x="350" y="620" as="sourcePoint" />
            <mxPoint x="400" y="570" as="targetPoint" />
          </mxGeometry>
        </mxCell>
        <mxCell id="3i-_RwcoVbfSzUQDlx0F-17" value="" style="endArrow=classic;html=1;rounded=0;exitX=0.5;exitY=1;exitDx=0;exitDy=0;entryX=0.5;entryY=0;entryDx=0;entryDy=0;" edge="1" parent="1" source="3i-_RwcoVbfSzUQDlx0F-12" target="3i-_RwcoVbfSzUQDlx0F-13">
          <mxGeometry width="50" height="50" relative="1" as="geometry">
            <mxPoint x="340" y="520" as="sourcePoint" />
            <mxPoint x="390" y="470" as="targetPoint" />
          </mxGeometry>
        </mxCell>
        <mxCell id="3i-_RwcoVbfSzUQDlx0F-18" value="" style="endArrow=classic;html=1;rounded=0;exitX=0.5;exitY=1;exitDx=0;exitDy=0;entryX=0.5;entryY=0;entryDx=0;entryDy=0;" edge="1" parent="1" source="3i-_RwcoVbfSzUQDlx0F-10" target="3i-_RwcoVbfSzUQDlx0F-12">
          <mxGeometry width="50" height="50" relative="1" as="geometry">
            <mxPoint x="340" y="520" as="sourcePoint" />
            <mxPoint x="390" y="470" as="targetPoint" />
          </mxGeometry>
        </mxCell>
        <mxCell id="3i-_RwcoVbfSzUQDlx0F-20" value="" style="endArrow=classic;html=1;rounded=0;entryX=1;entryY=0.5;entryDx=0;entryDy=0;exitX=0;exitY=0.5;exitDx=0;exitDy=0;" edge="1" parent="1" source="3i-_RwcoVbfSzUQDlx0F-10" target="3i-_RwcoVbfSzUQDlx0F-9">
          <mxGeometry width="50" height="50" relative="1" as="geometry">
            <mxPoint x="340" y="520" as="sourcePoint" />
            <mxPoint x="390" y="470" as="targetPoint" />
          </mxGeometry>
        </mxCell>
        <mxCell id="3i-_RwcoVbfSzUQDlx0F-21" value="" style="endArrow=classic;html=1;rounded=0;exitX=0.5;exitY=1;exitDx=0;exitDy=0;" edge="1" parent="1" source="3i-_RwcoVbfSzUQDlx0F-5">
          <mxGeometry width="50" height="50" relative="1" as="geometry">
            <mxPoint x="340" y="520" as="sourcePoint" />
            <mxPoint x="400" y="430" as="targetPoint" />
          </mxGeometry>
        </mxCell>
        <mxCell id="3i-_RwcoVbfSzUQDlx0F-26" value="" style="edgeStyle=orthogonalEdgeStyle;rounded=0;orthogonalLoop=1;jettySize=auto;html=1;" edge="1" parent="1" source="3i-_RwcoVbfSzUQDlx0F-22" target="3i-_RwcoVbfSzUQDlx0F-2">
          <mxGeometry relative="1" as="geometry" />
        </mxCell>
        <mxCell id="3i-_RwcoVbfSzUQDlx0F-22" value="" style="shape=waypoint;sketch=0;fillStyle=solid;size=6;pointerEvents=1;points=[];fillColor=none;resizable=0;rotatable=0;perimeter=centerPerimeter;snapToPoint=1;" vertex="1" parent="1">
          <mxGeometry x="379.37" y="-30" width="20" height="20" as="geometry" />
        </mxCell>
        <mxCell id="3i-_RwcoVbfSzUQDlx0F-28" value="" style="endArrow=classic;html=1;rounded=0;exitX=0.5;exitY=1;exitDx=0;exitDy=0;exitPerimeter=0;" edge="1" parent="1" source="3i-_RwcoVbfSzUQDlx0F-2">
          <mxGeometry width="50" height="50" relative="1" as="geometry">
            <mxPoint x="390" y="100" as="sourcePoint" />
            <mxPoint x="398" y="120" as="targetPoint" />
          </mxGeometry>
        </mxCell>
        <mxCell id="3i-_RwcoVbfSzUQDlx0F-29" value="" style="endArrow=classic;html=1;rounded=0;exitX=0.5;exitY=1;exitDx=0;exitDy=0;" edge="1" parent="1" source="3i-_RwcoVbfSzUQDlx0F-4">
          <mxGeometry width="50" height="50" relative="1" as="geometry">
            <mxPoint x="340" y="180" as="sourcePoint" />
            <mxPoint x="400" y="190" as="targetPoint" />
          </mxGeometry>
        </mxCell>
        <mxCell id="3i-_RwcoVbfSzUQDlx0F-30" value="" style="endArrow=classic;html=1;rounded=0;exitX=1;exitY=0.5;exitDx=0;exitDy=0;entryX=0;entryY=0.5;entryDx=0;entryDy=0;" edge="1" parent="1" source="3i-_RwcoVbfSzUQDlx0F-6" target="3i-_RwcoVbfSzUQDlx0F-3">
          <mxGeometry width="50" height="50" relative="1" as="geometry">
            <mxPoint x="340" y="180" as="sourcePoint" />
            <mxPoint x="390" y="130" as="targetPoint" />
          </mxGeometry>
        </mxCell>
        <mxCell id="3i-_RwcoVbfSzUQDlx0F-44" value="Not Available&amp;nbsp;" style="edgeLabel;html=1;align=center;verticalAlign=middle;resizable=0;points=[];" connectable="0" vertex="1" parent="3i-_RwcoVbfSzUQDlx0F-30">
          <mxGeometry x="-0.3533" y="10" relative="1" as="geometry">
            <mxPoint as="offset" />
          </mxGeometry>
        </mxCell>
        <mxCell id="3i-_RwcoVbfSzUQDlx0F-31" value="" style="endArrow=classic;html=1;rounded=0;exitX=0.5;exitY=1;exitDx=0;exitDy=0;entryX=0.5;entryY=0;entryDx=0;entryDy=0;" edge="1" parent="1" source="3i-_RwcoVbfSzUQDlx0F-6" target="3i-_RwcoVbfSzUQDlx0F-1">
          <mxGeometry width="50" height="50" relative="1" as="geometry">
            <mxPoint x="340" y="180" as="sourcePoint" />
            <mxPoint x="390" y="130" as="targetPoint" />
          </mxGeometry>
        </mxCell>
        <mxCell id="3i-_RwcoVbfSzUQDlx0F-32" value="" style="endArrow=classic;html=1;rounded=0;exitX=0.5;exitY=1;exitDx=0;exitDy=0;entryX=0.5;entryY=0;entryDx=0;entryDy=0;" edge="1" parent="1" source="3i-_RwcoVbfSzUQDlx0F-1" target="3i-_RwcoVbfSzUQDlx0F-7">
          <mxGeometry width="50" height="50" relative="1" as="geometry">
            <mxPoint x="340" y="180" as="sourcePoint" />
            <mxPoint x="390" y="130" as="targetPoint" />
          </mxGeometry>
        </mxCell>
        <mxCell id="3i-_RwcoVbfSzUQDlx0F-33" value="" style="endArrow=classic;html=1;rounded=0;entryX=0.5;entryY=0;entryDx=0;entryDy=0;exitX=0.5;exitY=1;exitDx=0;exitDy=0;" edge="1" parent="1" source="3i-_RwcoVbfSzUQDlx0F-7" target="3i-_RwcoVbfSzUQDlx0F-5">
          <mxGeometry width="50" height="50" relative="1" as="geometry">
            <mxPoint x="340" y="340" as="sourcePoint" />
            <mxPoint x="390" y="290" as="targetPoint" />
          </mxGeometry>
        </mxCell>
        <mxCell id="3i-_RwcoVbfSzUQDlx0F-34" value="" style="endArrow=classic;html=1;rounded=0;entryX=0;entryY=0.5;entryDx=0;entryDy=0;exitX=1;exitY=0.5;exitDx=0;exitDy=0;" edge="1" parent="1" source="3i-_RwcoVbfSzUQDlx0F-7" target="3i-_RwcoVbfSzUQDlx0F-8">
          <mxGeometry width="50" height="50" relative="1" as="geometry">
            <mxPoint x="340" y="340" as="sourcePoint" />
            <mxPoint x="390" y="290" as="targetPoint" />
          </mxGeometry>
        </mxCell>
        <mxCell id="3i-_RwcoVbfSzUQDlx0F-45" value="Not valid" style="edgeLabel;html=1;align=center;verticalAlign=middle;resizable=0;points=[];" connectable="0" vertex="1" parent="3i-_RwcoVbfSzUQDlx0F-34">
          <mxGeometry x="-0.5444" y="9" relative="1" as="geometry">
            <mxPoint as="offset" />
          </mxGeometry>
        </mxCell>
        <mxCell id="3i-_RwcoVbfSzUQDlx0F-37" value="" style="shape=waypoint;sketch=0;fillStyle=solid;size=6;pointerEvents=1;points=[];fillColor=none;resizable=0;rotatable=0;perimeter=centerPerimeter;snapToPoint=1;" vertex="1" parent="1">
          <mxGeometry x="392.87" y="750" width="20" height="20" as="geometry" />
        </mxCell>
        <mxCell id="3i-_RwcoVbfSzUQDlx0F-41" value="" style="endArrow=classic;html=1;rounded=0;exitX=0.5;exitY=1;exitDx=0;exitDy=0;entryX=0.249;entryY=-0.07;entryDx=0;entryDy=0;entryPerimeter=0;" edge="1" parent="1" source="3i-_RwcoVbfSzUQDlx0F-14" target="3i-_RwcoVbfSzUQDlx0F-37">
          <mxGeometry width="50" height="50" relative="1" as="geometry">
            <mxPoint x="300" y="790" as="sourcePoint" />
            <mxPoint x="350" y="740" as="targetPoint" />
          </mxGeometry>
        </mxCell>
        <mxCell id="3i-_RwcoVbfSzUQDlx0F-46" value="Available" style="text;html=1;align=center;verticalAlign=middle;resizable=0;points=[];autosize=1;strokeColor=none;fillColor=none;" vertex="1" parent="1">
          <mxGeometry x="345" y="208" width="70" height="30" as="geometry" />
        </mxCell>
        <mxCell id="3i-_RwcoVbfSzUQDlx0F-47" value="valid" style="text;html=1;align=center;verticalAlign=middle;resizable=0;points=[];autosize=1;strokeColor=none;fillColor=none;" vertex="1" parent="1">
          <mxGeometry x="405" y="328" width="50" height="30" as="geometry" />
        </mxCell>
        <mxCell id="3i-_RwcoVbfSzUQDlx0F-51" value="Available" style="text;html=1;align=center;verticalAlign=middle;resizable=0;points=[];autosize=1;strokeColor=none;fillColor=none;" vertex="1" parent="1">
          <mxGeometry x="392.87" y="470" width="70" height="30" as="geometry" />
        </mxCell>
        <mxCell id="3i-_RwcoVbfSzUQDlx0F-54" value="" style="endArrow=classic;html=1;rounded=0;exitX=0.5;exitY=1;exitDx=0;exitDy=0;entryX=-0.236;entryY=0.663;entryDx=0;entryDy=0;entryPerimeter=0;" edge="1" parent="1" source="3i-_RwcoVbfSzUQDlx0F-9" target="3i-_RwcoVbfSzUQDlx0F-37">
          <mxGeometry width="50" height="50" relative="1" as="geometry">
            <mxPoint x="350" y="540" as="sourcePoint" />
            <mxPoint x="400" y="490" as="targetPoint" />
            <Array as="points">
              <mxPoint x="225" y="760" />
            </Array>
          </mxGeometry>
        </mxCell>
        <mxCell id="3i-_RwcoVbfSzUQDlx0F-55" value="" style="endArrow=classic;html=1;rounded=0;exitX=0.5;exitY=1;exitDx=0;exitDy=0;entryX=1;entryY=0.5;entryDx=0;entryDy=0;" edge="1" parent="1" source="3i-_RwcoVbfSzUQDlx0F-8" target="3i-_RwcoVbfSzUQDlx0F-12">
          <mxGeometry width="50" height="50" relative="1" as="geometry">
            <mxPoint x="330" y="460" as="sourcePoint" />
            <mxPoint x="380" y="410" as="targetPoint" />
            <Array as="points">
              <mxPoint x="595" y="530" />
            </Array>
          </mxGeometry>
        </mxCell>
        <mxCell id="3i-_RwcoVbfSzUQDlx0F-58" value="" style="swimlane;startSize=0;" vertex="1" parent="1">
          <mxGeometry x="130" y="-102" width="580" height="890" as="geometry" />
        </mxCell>
        <mxCell id="3i-_RwcoVbfSzUQDlx0F-63" value="&lt;font style=&quot;font-size: 14px;&quot;&gt;Library management system&lt;/font&gt;" style="shape=document;whiteSpace=wrap;html=1;boundedLbl=1;" vertex="1" parent="3i-_RwcoVbfSzUQDlx0F-58">
          <mxGeometry width="200" height="50" as="geometry" />
        </mxCell>
      </root>
    </mxGraphModel>
  </diagram>
</mxfile>
